<mxfile host="app.diagrams.net" modified="2021-01-23T08:03:33.561Z" agent="5.0 (Macintosh; Intel Mac OS X 11_1_0) AppleWebKit/537.36 (KHTML, like Gecko) Chrome/87.0.4280.141 Safari/537.36" etag="F_y9wN385R7aU4-nuHeI" version="14.1.6" type="github">
  <diagram id="6HQtmxgOfnlrg9V09nXj" name="Page-1">
    <mxGraphModel dx="2066" dy="1129" grid="1" gridSize="10" guides="1" tooltips="1" connect="1" arrows="1" fold="1" page="1" pageScale="1" pageWidth="827" pageHeight="1169" math="0" shadow="0">
      <root>
        <mxCell id="0" />
        <mxCell id="1" parent="0" />
        <mxCell id="c1MBBOmgqg8tv05nefqL-1" value="开始" style="rounded=0;whiteSpace=wrap;html=1;sketch=1;fillColor=#dae8fc;strokeColor=#6c8ebf;" parent="1" vertex="1">
          <mxGeometry x="330" y="180" width="120" height="60" as="geometry" />
        </mxCell>
        <mxCell id="c1MBBOmgqg8tv05nefqL-2" value="访问数据库" style="rounded=0;whiteSpace=wrap;html=1;sketch=1;fillColor=#dae8fc;strokeColor=#6c8ebf;" parent="1" vertex="1">
          <mxGeometry x="330" y="270" width="120" height="60" as="geometry" />
        </mxCell>
        <mxCell id="c1MBBOmgqg8tv05nefqL-3" value="查询 Articles" style="rounded=0;whiteSpace=wrap;html=1;sketch=1;fillColor=#dae8fc;strokeColor=#6c8ebf;" parent="1" vertex="1">
          <mxGeometry x="220" y="380" width="120" height="60" as="geometry" />
        </mxCell>
        <mxCell id="c1MBBOmgqg8tv05nefqL-4" value="查询 Channel" style="rounded=0;whiteSpace=wrap;html=1;sketch=1;fillColor=#dae8fc;strokeColor=#6c8ebf;" parent="1" vertex="1">
          <mxGeometry x="450" y="380" width="120" height="60" as="geometry" />
        </mxCell>
        <mxCell id="c1MBBOmgqg8tv05nefqL-5" value="" style="endArrow=classic;html=1;exitX=0.5;exitY=1;exitDx=0;exitDy=0;" parent="1" source="c1MBBOmgqg8tv05nefqL-1" target="c1MBBOmgqg8tv05nefqL-2" edge="1">
          <mxGeometry width="50" height="50" relative="1" as="geometry">
            <mxPoint x="570" y="300" as="sourcePoint" />
            <mxPoint x="620" y="250" as="targetPoint" />
          </mxGeometry>
        </mxCell>
        <mxCell id="c1MBBOmgqg8tv05nefqL-9" value="" style="endArrow=classic;html=1;exitX=0.5;exitY=1;exitDx=0;exitDy=0;entryX=0.5;entryY=0;entryDx=0;entryDy=0;" parent="1" source="c1MBBOmgqg8tv05nefqL-2" target="c1MBBOmgqg8tv05nefqL-4" edge="1">
          <mxGeometry width="50" height="50" relative="1" as="geometry">
            <mxPoint x="390" y="600" as="sourcePoint" />
            <mxPoint x="440" y="550" as="targetPoint" />
          </mxGeometry>
        </mxCell>
        <mxCell id="c1MBBOmgqg8tv05nefqL-10" value="" style="endArrow=classic;html=1;exitX=0.5;exitY=1;exitDx=0;exitDy=0;entryX=0.5;entryY=0;entryDx=0;entryDy=0;" parent="1" source="c1MBBOmgqg8tv05nefqL-2" target="c1MBBOmgqg8tv05nefqL-3" edge="1">
          <mxGeometry width="50" height="50" relative="1" as="geometry">
            <mxPoint x="400" y="340" as="sourcePoint" />
            <mxPoint x="475" y="390" as="targetPoint" />
          </mxGeometry>
        </mxCell>
        <mxCell id="c1MBBOmgqg8tv05nefqL-11" value="获取未读文章列表" style="rounded=0;whiteSpace=wrap;html=1;sketch=1;fillColor=#dae8fc;strokeColor=#6c8ebf;" parent="1" vertex="1">
          <mxGeometry x="220" y="560" width="120" height="60" as="geometry" />
        </mxCell>
        <mxCell id="c1MBBOmgqg8tv05nefqL-12" value="比对last_sync_time和ssl" style="rounded=0;whiteSpace=wrap;html=1;sketch=1;fillColor=#dae8fc;strokeColor=#6c8ebf;" parent="1" vertex="1">
          <mxGeometry x="450" y="470" width="120" height="60" as="geometry" />
        </mxCell>
        <mxCell id="c1MBBOmgqg8tv05nefqL-13" value="创建请求队列" style="rounded=0;whiteSpace=wrap;html=1;sketch=1;fillColor=#dae8fc;strokeColor=#6c8ebf;" parent="1" vertex="1">
          <mxGeometry x="450" y="560" width="120" height="60" as="geometry" />
        </mxCell>
        <mxCell id="c1MBBOmgqg8tv05nefqL-14" value="" style="endArrow=classic;html=1;exitX=0.5;exitY=1;exitDx=0;exitDy=0;" parent="1" source="c1MBBOmgqg8tv05nefqL-4" target="c1MBBOmgqg8tv05nefqL-12" edge="1">
          <mxGeometry width="50" height="50" relative="1" as="geometry">
            <mxPoint x="400" y="250" as="sourcePoint" />
            <mxPoint x="400" y="280" as="targetPoint" />
          </mxGeometry>
        </mxCell>
        <mxCell id="c1MBBOmgqg8tv05nefqL-15" value="" style="endArrow=classic;html=1;exitX=0.5;exitY=1;exitDx=0;exitDy=0;" parent="1" source="c1MBBOmgqg8tv05nefqL-12" target="c1MBBOmgqg8tv05nefqL-13" edge="1">
          <mxGeometry width="50" height="50" relative="1" as="geometry">
            <mxPoint x="520" y="450" as="sourcePoint" />
            <mxPoint x="520" y="480" as="targetPoint" />
          </mxGeometry>
        </mxCell>
        <mxCell id="c1MBBOmgqg8tv05nefqL-16" value="更新 Channel 和Article" style="rounded=0;whiteSpace=wrap;html=1;sketch=1;fillColor=#dae8fc;strokeColor=#6c8ebf;" parent="1" vertex="1">
          <mxGeometry x="450" y="650" width="120" height="60" as="geometry" />
        </mxCell>
        <mxCell id="c1MBBOmgqg8tv05nefqL-17" value="" style="endArrow=classic;html=1;exitX=0.5;exitY=1;exitDx=0;exitDy=0;entryX=0.5;entryY=0;entryDx=0;entryDy=0;" parent="1" source="c1MBBOmgqg8tv05nefqL-13" target="c1MBBOmgqg8tv05nefqL-16" edge="1">
          <mxGeometry width="50" height="50" relative="1" as="geometry">
            <mxPoint x="520" y="540" as="sourcePoint" />
            <mxPoint x="520" y="570" as="targetPoint" />
          </mxGeometry>
        </mxCell>
        <mxCell id="c1MBBOmgqg8tv05nefqL-18" value="" style="endArrow=classic;html=1;exitX=0.5;exitY=1;exitDx=0;exitDy=0;entryX=0.5;entryY=0;entryDx=0;entryDy=0;" parent="1" source="c1MBBOmgqg8tv05nefqL-3" target="c1MBBOmgqg8tv05nefqL-11" edge="1">
          <mxGeometry width="50" height="50" relative="1" as="geometry">
            <mxPoint x="120" y="510" as="sourcePoint" />
            <mxPoint x="170" y="460" as="targetPoint" />
          </mxGeometry>
        </mxCell>
        <mxCell id="c1MBBOmgqg8tv05nefqL-19" value="展示未读文章列表" style="rounded=0;whiteSpace=wrap;html=1;sketch=1;fillColor=#dae8fc;strokeColor=#6c8ebf;" parent="1" vertex="1">
          <mxGeometry x="330" y="790" width="120" height="60" as="geometry" />
        </mxCell>
        <mxCell id="c1MBBOmgqg8tv05nefqL-20" value="" style="endArrow=classic;html=1;exitX=0.5;exitY=1;exitDx=0;exitDy=0;entryX=0.5;entryY=0;entryDx=0;entryDy=0;" parent="1" source="c1MBBOmgqg8tv05nefqL-11" target="c1MBBOmgqg8tv05nefqL-19" edge="1">
          <mxGeometry width="50" height="50" relative="1" as="geometry">
            <mxPoint x="280" y="610" as="sourcePoint" />
            <mxPoint x="290" y="550" as="targetPoint" />
          </mxGeometry>
        </mxCell>
        <mxCell id="c1MBBOmgqg8tv05nefqL-21" value="" style="endArrow=classic;html=1;exitX=0.5;exitY=1;exitDx=0;exitDy=0;entryX=0.5;entryY=0;entryDx=0;entryDy=0;" parent="1" source="c1MBBOmgqg8tv05nefqL-16" target="c1MBBOmgqg8tv05nefqL-19" edge="1">
          <mxGeometry width="50" height="50" relative="1" as="geometry">
            <mxPoint x="620" y="890" as="sourcePoint" />
            <mxPoint x="670" y="840" as="targetPoint" />
          </mxGeometry>
        </mxCell>
        <mxCell id="QPgocSOUQhDUr-NAub0w-1" value="" style="rounded=0;whiteSpace=wrap;html=1;shadow=0;sketch=1;fillColor=#dae8fc;strokeColor=#6c8ebf;" vertex="1" parent="1">
          <mxGeometry x="850" y="440" width="1040" height="100" as="geometry" />
        </mxCell>
        <mxCell id="QPgocSOUQhDUr-NAub0w-2" value="Renderer" style="text;html=1;strokeColor=none;fillColor=none;align=center;verticalAlign=middle;whiteSpace=wrap;rounded=0;shadow=0;sketch=1;" vertex="1" parent="1">
          <mxGeometry x="850" y="480" width="90" height="30" as="geometry" />
        </mxCell>
        <mxCell id="QPgocSOUQhDUr-NAub0w-4" value="" style="rounded=0;whiteSpace=wrap;html=1;shadow=0;sketch=1;fillColor=#d5e8d4;strokeColor=#82b366;" vertex="1" parent="1">
          <mxGeometry x="940" y="465" width="920" height="60" as="geometry" />
        </mxCell>
        <mxCell id="QPgocSOUQhDUr-NAub0w-5" value="View" style="text;html=1;strokeColor=#82b366;fillColor=#d5e8d4;align=center;verticalAlign=middle;whiteSpace=wrap;rounded=0;shadow=0;sketch=1;" vertex="1" parent="1">
          <mxGeometry x="960" y="485" width="40" height="20" as="geometry" />
        </mxCell>
        <mxCell id="QPgocSOUQhDUr-NAub0w-6" value="React" style="rounded=0;whiteSpace=wrap;html=1;shadow=0;sketch=1;" vertex="1" parent="1">
          <mxGeometry x="1030" y="475" width="90" height="40" as="geometry" />
        </mxCell>
        <mxCell id="QPgocSOUQhDUr-NAub0w-7" value="Mobx" style="rounded=0;whiteSpace=wrap;html=1;shadow=0;sketch=1;" vertex="1" parent="1">
          <mxGeometry x="1150" y="475" width="90" height="40" as="geometry" />
        </mxCell>
        <mxCell id="QPgocSOUQhDUr-NAub0w-8" value="Mobx" style="rounded=0;whiteSpace=wrap;html=1;shadow=0;sketch=1;" vertex="1" parent="1">
          <mxGeometry x="1270" y="475" width="90" height="40" as="geometry" />
        </mxCell>
        <mxCell id="QPgocSOUQhDUr-NAub0w-9" value="" style="rounded=0;whiteSpace=wrap;html=1;shadow=0;sketch=1;fillColor=#dae8fc;strokeColor=#6c8ebf;" vertex="1" parent="1">
          <mxGeometry x="850" y="570" width="1040" height="100" as="geometry" />
        </mxCell>
        <mxCell id="QPgocSOUQhDUr-NAub0w-10" value="background" style="text;html=1;strokeColor=none;fillColor=none;align=center;verticalAlign=middle;whiteSpace=wrap;rounded=0;shadow=0;sketch=1;" vertex="1" parent="1">
          <mxGeometry x="850" y="610" width="90" height="30" as="geometry" />
        </mxCell>
        <mxCell id="QPgocSOUQhDUr-NAub0w-11" value="" style="rounded=0;whiteSpace=wrap;html=1;shadow=0;sketch=1;fillColor=#d5e8d4;strokeColor=#82b366;" vertex="1" parent="1">
          <mxGeometry x="940" y="595" width="920" height="60" as="geometry" />
        </mxCell>
        <mxCell id="QPgocSOUQhDUr-NAub0w-13" value="React" style="rounded=0;whiteSpace=wrap;html=1;shadow=0;sketch=1;" vertex="1" parent="1">
          <mxGeometry x="1030" y="605" width="90" height="40" as="geometry" />
        </mxCell>
        <mxCell id="QPgocSOUQhDUr-NAub0w-14" value="Mobx" style="rounded=0;whiteSpace=wrap;html=1;shadow=0;sketch=1;" vertex="1" parent="1">
          <mxGeometry x="1150" y="605" width="90" height="40" as="geometry" />
        </mxCell>
        <mxCell id="QPgocSOUQhDUr-NAub0w-15" value="Mobx" style="rounded=0;whiteSpace=wrap;html=1;shadow=0;sketch=1;" vertex="1" parent="1">
          <mxGeometry x="1270" y="605" width="90" height="40" as="geometry" />
        </mxCell>
      </root>
    </mxGraphModel>
  </diagram>
</mxfile>
